<mxfile host="app.diagrams.net" agent="Mozilla/5.0 (Windows NT 10.0; Win64; x64; rv:133.0) Gecko/20100101 Firefox/133.0" version="25.0.3">
  <diagram name="Page-1" id="oD5jWo_o9-uB4zybnaU-">
    <mxGraphModel dx="880" dy="434" grid="1" gridSize="10" guides="1" tooltips="1" connect="1" arrows="1" fold="1" page="1" pageScale="1" pageWidth="827" pageHeight="1169" math="0" shadow="0">
      <root>
        <mxCell id="0" />
        <mxCell id="1" parent="0" />
        <mxCell id="raZtsu24PhfcnCYuqOcE-5" style="edgeStyle=orthogonalEdgeStyle;rounded=0;orthogonalLoop=1;jettySize=auto;html=1;exitX=0.75;exitY=1;exitDx=0;exitDy=0;entryX=0.5;entryY=0;entryDx=0;entryDy=0;" edge="1" parent="1" source="raZtsu24PhfcnCYuqOcE-15" target="raZtsu24PhfcnCYuqOcE-4">
          <mxGeometry relative="1" as="geometry" />
        </mxCell>
        <mxCell id="raZtsu24PhfcnCYuqOcE-6" style="edgeStyle=orthogonalEdgeStyle;rounded=0;orthogonalLoop=1;jettySize=auto;html=1;exitX=0.5;exitY=1;exitDx=0;exitDy=0;entryX=0.5;entryY=0;entryDx=0;entryDy=0;" edge="1" parent="1" source="raZtsu24PhfcnCYuqOcE-1" target="raZtsu24PhfcnCYuqOcE-15">
          <mxGeometry relative="1" as="geometry" />
        </mxCell>
        <mxCell id="raZtsu24PhfcnCYuqOcE-7" style="edgeStyle=orthogonalEdgeStyle;rounded=0;orthogonalLoop=1;jettySize=auto;html=1;exitX=0.25;exitY=1;exitDx=0;exitDy=0;entryX=0.5;entryY=0;entryDx=0;entryDy=0;" edge="1" parent="1" source="raZtsu24PhfcnCYuqOcE-15" target="raZtsu24PhfcnCYuqOcE-2">
          <mxGeometry relative="1" as="geometry" />
        </mxCell>
        <mxCell id="raZtsu24PhfcnCYuqOcE-1" value="Main agent" style="rounded=0;whiteSpace=wrap;html=1;fillColor=#d5e8d4;strokeColor=#82b366;" vertex="1" parent="1">
          <mxGeometry x="320" y="40" width="200" height="40" as="geometry" />
        </mxCell>
        <mxCell id="raZtsu24PhfcnCYuqOcE-14" style="edgeStyle=orthogonalEdgeStyle;rounded=0;orthogonalLoop=1;jettySize=auto;html=1;exitX=0.5;exitY=1;exitDx=0;exitDy=0;entryX=0.5;entryY=0;entryDx=0;entryDy=0;" edge="1" parent="1" source="raZtsu24PhfcnCYuqOcE-2" target="raZtsu24PhfcnCYuqOcE-13">
          <mxGeometry relative="1" as="geometry" />
        </mxCell>
        <mxCell id="raZtsu24PhfcnCYuqOcE-2" value="Base manager" style="rounded=0;whiteSpace=wrap;html=1;fillColor=#fff2cc;strokeColor=#d6b656;" vertex="1" parent="1">
          <mxGeometry x="220" y="193" width="120" height="40" as="geometry" />
        </mxCell>
        <mxCell id="raZtsu24PhfcnCYuqOcE-12" style="edgeStyle=orthogonalEdgeStyle;rounded=0;orthogonalLoop=1;jettySize=auto;html=1;exitX=0.5;exitY=1;exitDx=0;exitDy=0;entryX=0.5;entryY=0;entryDx=0;entryDy=0;" edge="1" parent="1" source="raZtsu24PhfcnCYuqOcE-3" target="raZtsu24PhfcnCYuqOcE-11">
          <mxGeometry relative="1" as="geometry" />
        </mxCell>
        <mxCell id="raZtsu24PhfcnCYuqOcE-3" value="Recruit manager" style="rounded=0;whiteSpace=wrap;html=1;fillColor=#ffe6cc;strokeColor=#d79b00;" vertex="1" parent="1">
          <mxGeometry x="360" y="193" width="120" height="40" as="geometry" />
        </mxCell>
        <mxCell id="raZtsu24PhfcnCYuqOcE-10" style="edgeStyle=orthogonalEdgeStyle;rounded=0;orthogonalLoop=1;jettySize=auto;html=1;exitX=0.5;exitY=1;exitDx=0;exitDy=0;entryX=0.5;entryY=0;entryDx=0;entryDy=0;" edge="1" parent="1" source="raZtsu24PhfcnCYuqOcE-4" target="raZtsu24PhfcnCYuqOcE-8">
          <mxGeometry relative="1" as="geometry" />
        </mxCell>
        <mxCell id="raZtsu24PhfcnCYuqOcE-4" value="Attack manager" style="rounded=0;whiteSpace=wrap;html=1;fillColor=#dae8fc;strokeColor=#6c8ebf;" vertex="1" parent="1">
          <mxGeometry x="500" y="193" width="120" height="40" as="geometry" />
        </mxCell>
        <mxCell id="raZtsu24PhfcnCYuqOcE-8" value="7 actions" style="rounded=0;whiteSpace=wrap;html=1;" vertex="1" parent="1">
          <mxGeometry x="500" y="263" width="120" height="40" as="geometry" />
        </mxCell>
        <mxCell id="raZtsu24PhfcnCYuqOcE-11" value="5 actions" style="rounded=0;whiteSpace=wrap;html=1;" vertex="1" parent="1">
          <mxGeometry x="360" y="263" width="120" height="40" as="geometry" />
        </mxCell>
        <mxCell id="raZtsu24PhfcnCYuqOcE-13" value="7 actions" style="rounded=0;whiteSpace=wrap;html=1;" vertex="1" parent="1">
          <mxGeometry x="220" y="263" width="120" height="40" as="geometry" />
        </mxCell>
        <mxCell id="raZtsu24PhfcnCYuqOcE-16" style="edgeStyle=orthogonalEdgeStyle;rounded=0;orthogonalLoop=1;jettySize=auto;html=1;exitX=0.5;exitY=1;exitDx=0;exitDy=0;entryX=0.5;entryY=0;entryDx=0;entryDy=0;" edge="1" parent="1" source="raZtsu24PhfcnCYuqOcE-15" target="raZtsu24PhfcnCYuqOcE-3">
          <mxGeometry relative="1" as="geometry" />
        </mxCell>
        <mxCell id="raZtsu24PhfcnCYuqOcE-15" value="3 actions" style="rounded=0;whiteSpace=wrap;html=1;" vertex="1" parent="1">
          <mxGeometry x="360" y="111" width="120" height="40" as="geometry" />
        </mxCell>
      </root>
    </mxGraphModel>
  </diagram>
</mxfile>
